<svg width="77" height="77" viewBox="0 0 77 77" fill="none" xmlns="http://www.w3.org/2000/svg">
<path d="M38.5 0C30.8854 0 23.4418 2.25799 17.1106 6.48842C10.7793 10.7189 5.84463 16.7317 2.93065 23.7667C0.0166814 30.8016 -0.745747 38.5427 0.739784 46.011C2.22531 53.4792 5.89208 60.3393 11.2764 65.7236C16.6607 71.1079 23.5208 74.7747 30.989 76.2602C38.4573 77.7458 46.1984 76.9833 53.2333 74.0693C60.2683 71.1554 66.2812 66.2207 70.5116 59.8894C74.742 53.5581 77 46.1146 77 38.5C77 28.2892 72.9438 18.4965 65.7236 11.2764C58.5035 4.05624 48.7108 0 38.5 0ZM38.5 71.5C31.9732 71.5 25.593 69.5646 20.1662 65.9385C14.7394 62.3124 10.5097 57.1585 8.01199 51.1285C5.5143 45.0986 4.86079 38.4634 6.1341 32.062C7.40741 25.6606 10.5504 19.7806 15.1655 15.1655C19.7806 10.5503 25.6607 7.4074 32.062 6.13408C38.4634 4.86077 45.0986 5.51428 51.1286 8.01197C57.1585 10.5097 62.3124 14.7394 65.9385 20.1662C69.5646 25.593 71.5 31.9732 71.5 38.5C71.5 47.2521 68.0232 55.6458 61.8345 61.8345C55.6458 68.0232 47.2522 71.5 38.5 71.5Z" fill="#FFD233"/>
<path d="M35.75 16.5H41.25V46.75H35.75V16.5Z" fill="#FFD233"/>
<path d="M38.5 55C37.6841 55 36.8866 55.2419 36.2083 55.6952C35.5299 56.1484 35.0012 56.7927 34.689 57.5464C34.3768 58.3002 34.2951 59.1296 34.4542 59.9297C34.6134 60.7299 35.0063 61.4649 35.5832 62.0418C36.1601 62.6187 36.8951 63.0116 37.6952 63.1707C38.4954 63.3299 39.3248 63.2482 40.0786 62.936C40.8323 62.6238 41.4765 62.0951 41.9298 61.4167C42.3831 60.7384 42.625 59.9408 42.625 59.125C42.625 58.031 42.1904 56.9818 41.4168 56.2082C40.6432 55.4346 39.594 55 38.5 55Z" fill="#FFD233"/>
</svg>
