<svg width="122" height="122" viewBox="0 0 122 122" fill="none" xmlns="http://www.w3.org/2000/svg">
<path d="M98.1456 101.184H23.8544C22.9224 101.184 22.1599 100.421 22.1599 99.4893V59.6139C22.1599 58.682 22.9224 57.9195 23.8544 57.9195H98.1456C99.0776 57.9195 99.8401 58.682 99.8401 59.6139V99.4893C99.8401 100.421 99.0776 101.184 98.1456 101.184Z" fill="#A57939"/>
<path d="M98.1456 101.184H23.8544C22.9224 101.184 22.1599 100.421 22.1599 99.4893V59.6139C22.1599 58.682 22.9224 57.9195 23.8544 57.9195H98.1456C99.0776 57.9195 99.8401 58.682 99.8401 59.6139V99.4893C99.8401 100.421 99.0776 101.184 98.1456 101.184Z" stroke="black" stroke-width="3.38889" stroke-miterlimit="10" stroke-linecap="round" stroke-linejoin="round"/>
<path d="M22.7784 79.6575H99.6486M67.8252 66.0325H54.2239M67.8252 88.0654H54.2239M61.0796 15.4618V47.436M71.5089 37.0643L61.1051 47.4682M50.6164 37.0643L61.0203 47.4682M97.7999 101.67H24.339C23.8244 101.67 23.331 101.466 22.9671 101.102C22.6033 100.738 22.3989 100.244 22.3989 99.7299V59.4801C22.3989 58.4092 23.2681 57.5399 24.339 57.5399H97.8016C98.8742 57.5399 99.7418 58.4092 99.7418 59.4801V99.7299C99.7418 100.803 98.8725 101.67 97.7999 101.67Z" stroke="black" stroke-width="3.38889" stroke-miterlimit="10" stroke-linecap="round" stroke-linejoin="round"/>
</svg>
