<svg width="26" height="24" viewBox="0 0 26 24" fill="none" xmlns="http://www.w3.org/2000/svg">
<g clip-path="url(#clip0_2_21)">
<path d="M20 19L16 15M12 17C11.2121 17 10.4319 16.8448 9.7039 16.5433C8.97595 16.2417 8.31451 15.7998 7.75736 15.2426C7.20021 14.6855 6.75825 14.0241 6.45672 13.2961C6.15519 12.5681 6 11.7879 6 11C6 10.2121 6.15519 9.43185 6.45672 8.7039C6.75825 7.97595 7.20021 7.31451 7.75736 6.75736C8.31451 6.20021 8.97595 5.75825 9.7039 5.45672C10.4319 5.15519 11.2121 5 12 5C13.5913 5 15.1174 5.63214 16.2426 6.75736C17.3679 7.88258 18 9.4087 18 11C18 12.5913 17.3679 14.1174 16.2426 15.2426C15.1174 16.3679 13.5913 17 12 17Z" stroke="black"/>
</g>
<defs>
<clipPath id="clip0_2_21">
<rect width="15" height="15" fill="white" transform="translate(5.5 4.5)"/>
</clipPath>
</defs>
</svg>
