<svg width="80" height="84" viewBox="0 0 80 84" fill="none" xmlns="http://www.w3.org/2000/svg">
<path d="M30.45 84L23.31 71.4H9.45L0 54.6L7.14 42L0 29.4L9.45 12.6H23.31L30.45 0H49.35L56.49 12.6H70.35L79.8 29.4L72.66 42L79.8 54.6L70.35 71.4H56.49L49.35 84H30.45ZM56.49 37.8H65.52L70.14 29.4L65.52 21H56.49L51.765 29.4L56.49 37.8ZM35.49 50.4H44.31L49.035 42L44.31 33.6H35.49L30.765 42L35.49 50.4ZM35.49 25.2H44.31L49.14 16.695L44.415 8.4H35.385L30.66 16.695L35.49 25.2ZM14.385 37.8H23.31L28.035 29.4L23.31 21H14.385L9.66 29.4L14.385 37.8ZM14.385 63H23.31L28.035 54.6L23.31 46.2H14.28L9.66 54.6L14.385 63ZM35.385 75.6H44.415L49.14 67.305L44.31 58.8H35.49L30.66 67.305L35.385 75.6ZM56.49 63H65.415L70.14 54.6L65.415 46.2H56.49L51.765 54.6L56.49 63Z" fill="#FFD233"/>
</svg>
