<svg width="90" height="105" viewBox="0 0 90 105" fill="none" xmlns="http://www.w3.org/2000/svg">
<path d="M66.2953 49.4007L62.2442 54.0631C57.6681 48.8078 51.4675 45.8564 45.0029 45.8564C38.5383 45.8564 32.3376 48.8078 27.7615 54.0631L23.7104 49.4007C29.3618 42.9107 37.0193 39.2659 45.0029 39.2659C52.9864 39.2659 60.6439 42.9107 66.2953 49.4007ZM78.1505 35.0903C69.3527 24.9865 57.4316 19.312 45.0029 19.312C32.5742 19.312 20.653 24.9865 11.8552 35.0903L15.9063 39.7593C23.6288 30.8902 34.0931 25.9091 45.0029 25.9091C55.9127 25.9091 66.3769 30.8902 74.0994 39.7593L78.1505 35.0903ZM45.0029 0.00688949C36.6425 -0.0222383 28.3601 1.85765 20.6353 5.53771C12.9105 9.21778 5.89668 14.6249 0 21.446L4.05106 26.1084C9.42829 19.9189 15.8122 15.009 22.8383 11.6592C29.8644 8.30944 37.3949 6.58531 45 6.58531C52.6051 6.58531 60.1356 8.30944 67.1617 11.6592C74.1878 15.009 80.5717 19.9189 85.9489 26.1084L90 21.446C84.1045 14.6245 77.0918 9.21662 69.368 5.53543C61.6442 1.85425 53.3627 -0.0270963 45.0029 0.000294846V0.00688949ZM79.3824 85.2161V105H10.6233V85.2161C10.6263 81.7192 11.8347 78.3665 13.9832 75.8938C16.1316 73.421 19.0447 72.0303 22.0831 72.0268H33.543C33.543 68.5288 34.7504 65.1741 36.8995 62.7006C39.0487 60.2272 41.9635 58.8376 45.0029 58.8376C48.0422 58.8376 50.9571 60.2272 53.1062 62.7006C55.2553 65.1741 56.4627 68.5288 56.4627 72.0268H67.9226C70.961 72.0303 73.8741 73.421 76.0226 75.8938C78.1711 78.3665 79.3794 81.7192 79.3824 85.2161ZM16.3532 98.4054H73.6525V85.2161C73.651 83.4676 73.0468 81.7913 71.9726 80.5549C70.8983 79.3186 69.4418 78.6232 67.9226 78.6215H22.0831C20.5639 78.6232 19.1074 79.3186 18.0332 80.5549C16.9589 81.7913 16.3547 83.4676 16.3532 85.2161V98.4054ZM39.2729 72.0268H50.7328C50.7328 70.2778 50.1291 68.6005 49.0545 67.3637C47.98 66.127 46.5225 65.4322 45.0029 65.4322C43.4832 65.4322 42.0258 66.127 40.9512 67.3637C39.8766 68.6005 39.2729 70.2778 39.2729 72.0268Z" fill="#FFD233"/>
</svg>
