<svg width="109" height="103" viewBox="0 0 109 103" fill="none" xmlns="http://www.w3.org/2000/svg">
<g clip-path="url(#clip0_0_3)">
<path d="M84.2207 67.1331C85.126 63.8486 85.6286 60.5011 85.6286 57.2222C85.6286 45.3172 79.2037 37.8268 69.7085 34.2332C70.9711 31.3492 71.722 28.202 71.722 25.0777C71.722 20.5542 70.2233 17.9306 67.7405 16.4028C71.0438 15.0237 75.3614 12.1111 76.9056 10.6491C79.2703 8.41454 79.7517 5.24443 77.9774 3.56782C76.2031 1.89121 72.8514 2.34326 70.4837 4.58065C68.6337 6.32879 64.5855 11.8193 63.7529 14.935C61.0763 14.3771 57.9093 14.3056 54.5 14.3056C51.0938 14.3056 47.9237 14.3771 45.2502 14.9322C44.4175 11.8164 40.3694 6.32879 38.5194 4.57779C36.1547 2.34326 32.7999 1.88835 31.0257 3.56496C29.2544 5.24443 29.7328 8.41168 32.0975 10.6491C33.6447 12.1111 37.9623 15.0237 41.2626 16.4028C38.7768 17.9277 37.278 20.5542 37.278 25.0777C37.278 28.2048 38.0289 31.3492 39.2915 34.2332C29.7964 37.8268 23.3714 45.3172 23.3714 57.2222C23.3714 60.5011 23.8771 63.8514 24.7793 67.1331V67.1989L24.7975 67.1903C28.4581 80.4115 38.8555 92.5026 51.4783 94.1992L51.4722 94.4167C51.4722 99.1575 52.8287 103 54.5 103C56.1744 103 57.5278 99.1575 57.5278 94.4167C57.5278 94.3423 57.5217 94.2765 57.5187 94.2021C70.1415 92.5055 80.5419 80.4144 84.2025 67.1932L84.2207 67.2018V67.1331Z" fill="#31373D"/>
<path d="M44.2782 54.3611H64.7218C60.2952 50.2869 56.8041 46.1183 55.3175 42.9167H53.6825C52.1959 46.1183 48.7048 50.2869 44.2782 54.3611ZM27.9948 65.8056C26.9018 66.3406 25.83 66.8041 24.7793 67.2018C25.7482 70.6895 27.1985 74.0885 29.0212 77.25H79.9787C81.8166 74.0746 83.2409 70.7006 84.2207 67.2018C83.1248 66.7852 82.0508 66.3193 81.0021 65.8056H27.9948ZM38.8736 88.6945C43.4698 92.2251 48.7987 94.4167 54.5 94.4167C60.2043 94.4167 65.5302 92.2251 70.1294 88.6945H38.8736Z" fill="#FFCC4D"/>
<path d="M54.5 38.6393C54.5 46.2127 30.7077 63.1991 18.1667 63.1991C5.62561 63.1991 0 56.2094 0 48.636C0 41.0655 5.62561 35.7753 18.1667 35.7753C30.7107 35.7782 54.5 31.0717 54.5 38.6393ZM54.5 38.6393C54.5 46.2127 78.2892 63.1991 90.8333 63.1991C103.377 63.1991 109 56.2094 109 48.636C109 41.0655 103.377 35.7753 90.8333 35.7753C78.2892 35.7753 54.5 31.0717 54.5 38.6393Z" fill="#CCD6DD"/>
<path d="M6.05556 54.3611C5.25254 54.3619 4.48209 54.0612 3.91371 53.5251C3.34532 52.9891 3.02555 52.2617 3.02475 51.5029C3.02395 50.744 3.34218 50.016 3.90943 49.4789C4.47668 48.9418 5.24648 48.6396 6.0495 48.6389C6.19483 48.6389 21.034 48.4386 47.2152 37.4405C47.5795 37.2804 47.974 37.1904 48.3755 37.1758C48.7771 37.1612 49.1777 37.2223 49.554 37.3555C49.9303 37.4887 50.2748 37.6914 50.5674 37.9517C50.8599 38.212 51.0948 38.5247 51.2581 38.8716C51.4215 39.2185 51.5102 39.5927 51.5189 39.9724C51.5277 40.352 51.4564 40.7295 51.3092 41.0828C51.162 41.4361 50.9419 41.7583 50.6616 42.0304C50.3813 42.3025 50.0465 42.5192 49.6767 42.6677C22.1542 54.2266 6.70047 54.3611 6.05556 54.3611ZM102.944 54.3611C102.3 54.3611 86.8488 54.2266 59.3263 42.6706C58.6136 42.35 58.0616 41.7791 57.7879 41.0795C57.5142 40.3799 57.5404 39.6069 57.861 38.9253C58.1816 38.2437 58.7711 37.7074 59.5041 37.4306C60.237 37.1537 61.0554 37.1583 61.7848 37.4434C87.9691 48.4386 102.805 48.6389 102.954 48.6389C103.757 48.64 104.526 48.9426 105.093 49.4799C105.66 50.0173 105.978 50.7455 105.977 51.5043C105.976 52.2631 105.655 52.9904 105.087 53.5261C104.518 54.0619 103.747 54.3622 102.944 54.3611Z" fill="#99AAB5"/>
</g>
<defs>
<clipPath id="clip0_0_3">
<rect width="109" height="103" fill="white"/>
</clipPath>
</defs>
</svg>
